<svg width="171" height="53" viewBox="0 0 171 53" fill="none" xmlns="http://www.w3.org/2000/svg">
<path d="M13.4119 7.3418C19.6219 7.3418 24.5882 10.0938 24.5882 17.082C24.5882 21.9842 21.058 27.1511 15.9633 28.1299C18.7495 28.6622 21.264 30.1467 23.076 32.3291C24.8881 34.5115 25.885 37.256 25.896 40.0926C25.9216 41.595 25.6476 43.0874 25.0901 44.4828C24.5325 45.8781 23.7025 47.1484 22.6487 48.2195C21.5948 49.2906 20.338 50.141 18.9519 50.721C17.5657 51.301 16.0779 51.5991 14.5753 51.5978H1V50.4585H1.64988C4.05684 50.4585 4.05684 48.9582 4.05684 46.9925V11.5941C4.05684 10.2863 4.05684 8.38481 1.57767 8.38481H1.06419V7.3418H13.4119ZM11.8073 8.64958H10.2026V27.5442H12.8182C15.8269 27.5442 18.5067 23.5326 18.5067 17.8683C18.4505 9.17911 14.3266 8.64958 11.7832 8.64958H11.8073ZM10.2026 48.4608C10.2026 50.1537 11.2456 50.2259 11.8073 50.2259H13.5644C17.576 50.2259 19.5176 46.2143 19.5176 40.2851C19.5176 30.3524 14.4148 29.0526 12.7219 29.0526H10.2347L10.2026 48.4608Z" fill="#3D5A34" stroke="white" stroke-width="0.15" stroke-miterlimit="10" stroke-linecap="round"/>
<path d="M37.5939 21.2061C44.1329 21.2061 48.1846 28.3307 48.1846 36.5625C48.1846 44.6659 44.173 51.9911 37.5939 51.9911C31.0149 51.9911 27.2039 44.6659 27.2039 36.5625C27.2039 28.3307 31.1272 21.2061 37.5939 21.2061ZM37.5939 50.8117C40.4101 50.8117 42.4079 47.8672 42.4079 36.9556C42.4079 26.0441 40.386 22.2491 37.5939 22.2491C34.9142 22.2491 32.8923 25.9718 32.8923 36.9556C32.8923 47.9394 34.85 50.8117 37.5939 50.8117Z" fill="#3D5A34" stroke="white" stroke-width="0.15" stroke-miterlimit="10" stroke-linecap="round"/>
<path d="M56.3523 14.9238V21.6633H62.3697V23.1797H56.3523V46.2384C56.3523 48.6454 57.4033 50.0254 59.361 50.0254C59.9454 49.9728 60.5042 49.761 60.9767 49.4131C61.4491 49.0651 61.8172 48.5942 62.0407 48.0517L62.8912 48.7016C61.2865 51.0604 59.6819 51.975 57.4033 51.975C53.7367 51.975 50.8002 50.0093 50.8002 45.2355V23.1797H47.9199V22.1367C48.8643 22.0511 49.7787 21.7609 50.5996 21.2862C52.7776 19.7421 54.3673 17.5047 55.1087 14.9399L56.3523 14.9238Z" fill="#3D5A34" stroke="white" stroke-width="0.15" stroke-miterlimit="10" stroke-linecap="round"/>
<path d="M74.982 27.1914C74.982 25.0331 74.7815 22.2892 71.7166 22.2892C69.0288 22.2892 68.5073 24.2469 68.5073 25.0973C68.5073 25.9478 68.9646 26.2767 68.9646 27.1914C68.9856 27.5312 68.9343 27.8716 68.8141 28.1902C68.6938 28.5087 68.5073 28.7981 68.2669 29.0392C68.0265 29.2804 67.7377 29.4678 67.4196 29.589C67.1014 29.7103 66.7612 29.7627 66.4213 29.7428C66.0464 29.7534 65.6731 29.6893 65.3233 29.5542C64.9734 29.4191 64.654 29.2156 64.3836 28.9557C64.1133 28.6958 63.8974 28.3846 63.7486 28.0404C63.5997 27.6961 63.521 27.3257 63.5169 26.9507C63.5169 23.4927 68.0259 21.2061 72.8639 21.2061C77.3088 21.2061 80.51 23.4205 80.51 28.6516V48.5251C80.51 49.8971 81.0957 50.4828 82.6683 50.4828V51.598H74.982V49.8329C74.3113 50.5584 73.4893 51.1277 72.5743 51.5007C71.6593 51.8736 70.6736 52.041 69.6867 51.9911C68.7083 52.0094 67.7361 51.8313 66.8278 51.4672C65.9194 51.1031 65.0933 50.5606 64.3984 49.8716C63.7034 49.1826 63.1537 48.3612 62.7818 47.456C62.4099 46.5509 62.2233 45.5803 62.2332 44.6017C62.4337 38.127 67.4001 37.3809 72.4948 34.5326C72.4948 34.5326 74.3963 33.618 74.982 32.5108V27.1914ZM74.982 33.987C73.6101 35.5917 71.3235 36.394 69.6867 37.9986C67.7932 39.9643 67.7932 42.5077 67.7932 44.0161C67.7932 46.6316 68.8363 49.9613 72.1739 49.9613C72.8088 49.9399 73.421 49.7202 73.9246 49.3332C74.4283 48.9461 74.798 48.411 74.982 47.803V33.987Z" fill="#3D5A34" stroke="white" stroke-width="0.15" stroke-miterlimit="10" stroke-linecap="round"/>
<path d="M91.2532 21.6637V23.8861C91.9514 23.0222 92.8394 22.3309 93.8483 21.8661C94.8572 21.4013 95.9597 21.1756 97.0701 21.2064C101.258 21.2064 104.716 23.493 104.716 28.7161V48.5254C104.716 49.8974 105.438 50.4831 106.321 50.4831H107.043V51.5983H96.6127V50.459H97.3348C98.2495 50.459 99.1641 50.3307 99.1641 48.5014V28.1946C99.1641 25.4507 97.9205 23.1641 95.0482 23.1641C94.0109 23.2035 93.0293 23.6435 92.3096 24.3916C91.59 25.1397 91.1883 26.1376 91.189 27.1757V48.5254C91.189 49.8974 91.9111 50.4831 92.89 50.4831H93.5398V51.5983H83.1097V50.459H83.8318C84.7464 50.459 85.6611 50.3307 85.6611 48.5014V24.6002C85.6611 22.7709 84.6822 22.7067 83.7676 22.7067H82.9171V21.6637H91.2532Z" fill="#3D5A34" stroke="white" stroke-width="0.15" stroke-miterlimit="10" stroke-linecap="round"/>
<path d="M135.862 43.4865H137.691C136.969 47.2815 135.333 51.9911 130.471 51.9911C123.739 51.9911 119.816 44.5376 119.816 36.6267C119.816 28.3949 123.827 21.2061 130.543 21.2061C132.477 21.2748 134.391 21.6262 136.223 22.2491V29.47H135.116C134.915 27.7049 133.808 22.2491 130.607 22.2491C127.727 22.2491 125.641 26.036 125.641 36.755C125.641 47.7388 127.534 50.8759 130.543 50.8759C134.161 50.8759 135.333 46.1743 135.862 43.4865Z" fill="#3D5A34" stroke="white" stroke-width="0.15" stroke-miterlimit="10" stroke-linecap="round"/>
<path d="M151.411 27.1913C151.411 25.033 151.219 22.2891 148.146 22.2891C145.466 22.2891 144.937 24.2468 144.937 25.0972C144.937 25.9477 145.394 26.2766 145.394 27.1913C145.415 27.5318 145.363 27.873 145.243 28.1921C145.122 28.5112 144.935 28.801 144.693 29.0423C144.452 29.2836 144.162 29.4708 143.843 29.5915C143.524 29.7123 143.183 29.7638 142.842 29.7427C142.462 29.7589 142.083 29.6981 141.727 29.5639C141.37 29.4298 141.045 29.2251 140.77 28.962C140.495 28.699 140.276 28.3831 140.126 28.0333C139.976 27.6835 139.899 27.3071 139.898 26.9265C139.898 23.4685 144.407 21.1819 149.245 21.1819C153.69 21.1819 156.891 23.3963 156.891 28.6274V48.525C156.891 49.897 157.485 50.4827 159.049 50.4827V51.5979H151.403V49.8328C150.733 50.5592 149.911 51.1291 148.996 51.5021C148.081 51.8751 147.095 52.0421 146.108 51.991C145.13 52.0082 144.159 51.8293 143.251 51.4647C142.344 51.1002 141.519 50.5574 140.825 49.8686C140.131 49.1797 139.582 48.3587 139.21 47.454C138.839 46.5494 138.653 45.5795 138.662 44.6016C138.855 38.1269 143.821 37.3808 148.924 34.5325C148.924 34.5325 150.818 33.6179 151.403 32.5107L151.411 27.1913ZM151.411 33.9869C150.039 35.5916 147.753 36.3939 146.116 37.9985C144.222 39.9642 144.222 42.5076 144.222 44.016C144.222 46.6315 145.265 49.9612 148.603 49.9612C149.238 49.941 149.851 49.7218 150.355 49.3345C150.859 48.9473 151.228 48.4115 151.411 47.8029V33.9869Z" fill="#3D5A34" stroke="white" stroke-width="0.15" stroke-miterlimit="10" stroke-linecap="round"/>
<path d="M162.202 10.2863C162.202 8.45702 161.223 8.39284 160.309 8.39284H159.458V7.3418H167.698V48.525C167.698 49.8969 168.284 50.4826 169.391 50.4826H169.985V51.5978H159.651V50.4585H160.365C161.28 50.4585 162.194 50.3302 162.194 48.5009L162.202 10.2863Z" fill="#3D5A34" stroke="white" stroke-width="0.15" stroke-miterlimit="10" stroke-linecap="round"/>
<path d="M30.5334 6.37134V8.62586H32.5472V9.13132H30.5334V16.8577C30.5334 17.66 30.8864 18.1253 31.5443 18.1253C31.7397 18.1073 31.9264 18.0366 32.0847 17.9207C32.2429 17.8049 32.3668 17.6482 32.4429 17.4674L32.7238 17.6921C32.4754 18.0961 32.1014 18.4075 31.659 18.5784C31.2166 18.7494 30.7303 18.7704 30.2749 18.6383C29.8194 18.5062 29.4198 18.2283 29.1375 17.8472C28.8552 17.4661 28.7058 17.0029 28.7121 16.5287V9.13132H27.7494V8.7783C28.0655 8.74994 28.3719 8.65419 28.648 8.49749C29.3734 7.97645 29.9042 7.22821 30.1563 6.37134H30.5334Z" fill="#98B66B"/>
<path d="M35.219 9.30801C35.4566 9.04165 35.7505 8.83148 36.0794 8.69271C36.4083 8.55394 36.7639 8.49006 37.1205 8.50569C37.4627 8.47664 37.8072 8.52116 38.1308 8.63625C38.4544 8.75135 38.7496 8.93437 38.9966 9.17301C39.2436 9.41164 39.4366 9.70037 39.5628 10.0198C39.689 10.3392 39.7453 10.682 39.728 11.025V17.6522C39.728 18.1175 39.9046 18.3101 40.2736 18.3101H40.4983V18.6872H37.0804V18.3101H37.3211C37.626 18.3101 37.8907 18.2699 37.8907 17.6522V10.7923C37.8907 9.87766 37.4976 9.1315 36.5348 9.1315C36.3583 9.1303 36.1833 9.16485 36.0205 9.23308C35.8577 9.30131 35.7103 9.4018 35.5874 9.5285C35.4644 9.6552 35.3684 9.80548 35.3051 9.97028C35.2418 10.1351 35.2125 10.311 35.219 10.4874V17.6201C35.219 18.0854 35.4196 18.278 35.7886 18.278H35.901V18.6551H32.5954V18.278H32.7719C33.0768 18.278 33.3817 18.2379 33.3817 17.6201V4.78292C33.3817 4.17316 33.0527 4.14909 32.7479 4.14909H32.459V3.83618H35.219V9.30801Z" fill="#98B66B"/>
<path d="M40.5144 13.7045C40.5144 11.0087 41.7901 8.47339 43.9563 8.47339C46.1226 8.47339 46.8848 11.121 46.8848 13.0466C46.8848 13.1991 46.8848 13.3756 46.6922 13.3756H42.3998V14.1779C42.3998 17.5476 43.0978 18.358 44.0045 18.358H44.0927C45.3845 18.358 45.8659 16.7533 46.1306 15.6702H46.8286C46.4997 17.1144 45.7134 18.7752 44.0285 18.7752C41.8542 18.7832 40.5144 16.3281 40.5144 13.7045ZM42.4239 12.9022H44.8309C45.0074 12.9022 45.0716 12.7899 45.0716 12.6214C45.0716 11.1291 44.895 8.85048 43.9323 8.85048C43.146 8.84246 42.5523 10.1342 42.4239 12.8942V12.9022Z" fill="#98B66B"/>
<path d="M124.196 9.63668C123.069 9.49533 121.924 9.69956 120.915 10.2224C118.219 11.4339 116.053 13.9131 114.777 15.1085L115.058 14.5389C116.366 11.2333 120.594 9.38797 122.447 7.92774C123.421 7.24451 124.252 6.37786 124.894 5.37636C125.216 4.84945 125.406 4.25316 125.449 3.63751C125.493 3.02185 125.388 2.4048 125.143 1.83812C124.76 1.15603 124.165 0.617216 123.449 0.303111C122.732 -0.0109953 121.933 -0.0833147 121.172 0.0970836C119.704 0.529546 118.423 1.43856 117.529 2.68056C116.254 4.19651 115.218 5.89833 114.456 7.72716C114.021 6.42606 113.396 5.19606 112.603 4.0766C112.02 3.11642 111.138 2.37484 110.092 1.96649C109.547 1.7866 108.958 1.78699 108.413 1.96762C107.869 2.14825 107.396 2.49951 107.067 2.96939C106.856 3.36169 106.742 3.79886 106.735 4.24421C106.728 4.68956 106.828 5.13009 107.027 5.5288C107.428 6.2962 107.973 6.97975 108.631 7.54263C109.899 8.72204 113.542 10.4149 113.165 12.1319C113.068 12.64 112.98 13.1615 112.9 13.6964C112.9 13.8649 112.795 14.3142 112.683 14.7394C111.79 12.0751 110.163 9.7168 107.99 7.93576C107.098 7.12307 105.977 6.60481 104.78 6.45147C104.185 6.38051 103.583 6.50289 103.063 6.80053C102.543 7.09817 102.132 7.55527 101.892 8.10425C101.781 8.54749 101.786 9.01161 101.905 9.45253C102.025 9.89346 102.255 10.2966 102.574 10.6235C103.223 11.2962 103.994 11.8406 104.844 12.2282C106.53 13.0333 108.174 13.9223 109.771 14.8919C110.921 15.571 111.918 16.4806 112.699 17.5636C112.643 18.3659 112.579 19.1121 112.523 19.8823C112.523 19.8823 110.116 18.9436 109.458 19.2405C109.458 19.2405 108.864 19.3528 108.567 21.3024C108.184 23.3768 108.39 25.5168 109.161 27.4803C109.161 27.4803 111.448 34.8617 111.247 37.5655C111.046 40.2693 111.247 40.9994 109.554 44.4815C109.082 45.3384 108.788 46.2813 108.687 47.2543C108.586 48.2273 108.682 49.2106 108.968 50.1459C108.968 50.1459 109.682 52.3282 115.194 51.7505C115.194 51.7505 119.447 51.4216 119.254 47.9475C119.028 45.4646 118.101 43.097 116.582 41.1198C115.713 39.6699 115.166 38.05 114.978 36.37C114.68 33.8371 114.759 31.2741 115.21 28.764L116.566 24.279C116.682 23.9601 116.727 23.6197 116.698 23.2816C116.669 22.9435 116.567 22.6158 116.398 22.3214C115.688 21.6644 114.904 21.091 114.063 20.6124C114.135 19.6577 114.24 18.7029 114.32 17.7562C115.287 16.9793 116.4 16.4037 117.593 16.0633C119.28 15.5602 120.991 15.1451 122.72 14.8197C123.57 14.6664 124.385 14.3621 125.127 13.9211C125.498 13.7039 125.808 13.3966 126.028 13.0277C126.248 12.6588 126.371 12.2403 126.387 11.811C126.307 11.2601 126.05 10.7501 125.655 10.358C125.26 9.96581 124.748 9.71266 124.196 9.63668V9.63668Z" fill="#98B66B"/>
</svg>
